<?xml version="1.0" encoding="utf-8"?>
<!-- Generator: Adobe Illustrator 17.1.0, SVG Export Plug-In . SVG Version: 6.00 Build 0)  -->
<!DOCTYPE svg PUBLIC "-//W3C//DTD SVG 1.1//EN" "http://www.w3.org/Graphics/SVG/1.1/DTD/svg11.dtd">
<svg version="1.1" id="Layer_1" xmlns="http://www.w3.org/2000/svg" xmlns:xlink="http://www.w3.org/1999/xlink" x="0px" y="0px"
	 viewBox="0 0 500 500" style="enable-background:new 0 0 500 500;" xml:space="preserve">
<g>
	<path d="M435.9,348.6c-3.1-3.1-6.8-4.7-11.2-4.7c-4.4,0-8.1,1.6-11.2,4.7c-3.1,3.1-4.7,6.8-4.7,11.2c0,4.4,1.6,8.1,4.7,11.2
		c3.1,3.1,6.8,4.7,11.2,4.7c4.3,0,8.1-1.6,11.2-4.7c3.1-3.1,4.7-6.8,4.7-11.2C440.5,355.5,439,351.7,435.9,348.6z M429.2,370.4
		l-1.8-3.4c-1.1-2.1-2.1-3.6-2.9-4.2c-0.8-0.7-1.9-1-3.3-1h-0.8v8.6h-4.3v-21h7.5c2.5,0,4.4,0.1,5.4,0.3c1.1,0.2,2,0.8,2.9,1.9
		c0.8,1,1.2,2.3,1.2,3.8c0,1.5-0.5,2.8-1.5,3.9c-1,1.1-2.4,1.7-4.1,2c0.9,0.3,1.6,0.8,2.1,1.3c0.5,0.5,1.3,1.8,2.4,3.6l2.5,4.2
		H429.2z"/>
	<path d="M428.7,355.6c0-0.7-0.3-1.3-0.8-1.8c-0.5-0.5-1.1-0.8-1.8-0.9c-0.7-0.1-2-0.1-3.9-0.1h-1.7v5.7h1.7c2,0,3.4,0,4-0.1
		c0.7-0.1,1.2-0.4,1.7-0.9C428.4,357,428.7,356.3,428.7,355.6z"/>
	<path d="M250,0.5c-117.3,0-215.7,81-242.3,190l106-30.1l13.6,48l-29.4,8.4L182.8,340l4.5-148.7l-25.7,7.3l-13.6-48l102.1-29
		l13.6,48l-26.3,7.5l85.3,123.1l5.9-149.1l-28.4,8.1l-13.7-48l113.7-32.3l13.7,48l-30.8,8.8l-10.7,260.1l-53.1,15.1l-81.6-116.9
		l-5.4,141.7L178,451L29.3,236.2l-28.7,8.2c0,1.9-0.1,3.7-0.1,5.6c0,137.8,111.7,249.5,249.5,249.5c137.8,0,249.5-111.7,249.5-249.5
		C499.5,112.2,387.8,0.5,250,0.5z M424.7,379.6c-5.4,0-10.1-1.9-14-5.8c-3.9-3.9-5.8-8.5-5.8-14c0-5.5,1.9-10.1,5.8-14
		c3.9-3.9,8.5-5.8,14-5.8c5.4,0,10.1,1.9,13.9,5.8c3.9,3.9,5.8,8.5,5.8,13.9c0,5.4-1.9,10.1-5.8,14
		C434.7,377.7,430.1,379.6,424.7,379.6z"/>
</g>
</svg>
